<?xml version="1.0" encoding="utf-8"?>
<?xml-stylesheet type="text/xsl" href="rss1.xsl"?>
<rss version="2.0" xmlns:atom="http://www.w3.org/2005/Atom" xmlns:content="http://purl.org/rss/1.0/modules/content/" xmlns:dc="http://purl.org/dc/elements/1.1/" xmlns:media="http://search.yahoo.com/mrss/">
<channel>
 <title>Getty</title>
 <link>http://www.gettyimg.com/</link>
 <atom:link href="http://www.gettyimg.com/" rel="self" type="application/rss+xml" />

 
                <item>
                <title><![CDATA[【Cinema Center】MOVIE - President.Evil.2018.1080p.ROKU.WEB-DL.AAC2.0.H.264-Samuel]]></title>
                <link><![CDATA[https://sharemania.us/threads/president-evil-2018-1080p-roku-web-dl-aac2-0-h-264-samuel.245500/]]></link>
                <description><![CDATA[<article>
<blockquote class="messageText SelectQuoteContainer ugc baseHtml">
<div style="text-align: center"><b><span style="font-size: 26px">President Evil</span></b><br>
<img src="https://i.imgur.com/EgTZCNQ.jpeg" class="bbCodeImage LbImage" alt="[​IMG]" data-url="https://i.imgur.com/EgTZCNQ.jpeg" style=""><br>
<b><a href="https://i.imgur.com/audUbir.jpeg" target="_blank" class="externalLink" rel="nofollow">Alternate Artwork</a></b> | <b><a href="https://i.imgur.com/PhJC8Ck.jpeg" target="_blank" class="externalLink" rel="nofollow">Poster 1</a></b> | <b><a href="https://i.imgur.com/XWB6I8B.jpeg" target="_blank" class="externalLink" rel="nofollow">Poster 2</a></b> | <b><a href="https://i.imgur.com/BYF3w9y.jpeg" target="_blank" class="externalLink" rel="nofollow">Thumbnail</a></b><br>
<br>
2018 | UR | Horror • Comedy<br>
Jose Rosete, Ryan Adams, Kevin Alain<br>
<b>Directed By:</b> Richard Lowry<br>
<br>
<div class="bbCodeBlock bbCodeQuote">
<aside>
<blockquote class="quoteContainer"><div class="quote"><b><span style="font-size: 15px">Description</span></b><br>
A killer who wears a Donald Trump mask stalks three young women.</div><div class="quoteExpand">Click to expand...</div></blockquote>
</aside>
</div>
<div class="bbCodeBlock bbCodeQuote">
<aside>
<blockquote class="quoteContainer"><div class="quote"><b><span style="font-size: 15px">Cast and Crew</span></b><br>
William Fichtner, Lawrence Trilling, Eddie Cibrian, Lisa Sheridan, Kari Matchett, Tyler Labine, Evan Peters</div><div class="quoteExpand">Click to expand...</div></blockquote>
</aside>
</div>
<div class="bbCodeBlock bbCodeQuote">
<aside>
<blockquote class="quoteContainer"><div class="quote"><b><span style="font-size: 15px">More Information</span></b><br>
<b>Cast:</b> Jose Rosete, Ryan Adams, Kevin Alain, Havon Baraka, Chris Clyne, Sitara Attaie, Amber Boone, Bruce Clifford<br>
<b>Directors:</b> Richard Lowry<br>
<br>
<b>Captions:</b> English [Closed caption]<br>
<b>Audio track:</b> English (Original)</div><div class="quoteExpand">Click to expand...</div></blockquote>
</aside>
</div>
<div class="bbCodeBlock bbCodeQuote">
<aside>
<blockquote class="quoteContainer"><div class="quote"><span style="font-size: 15px"><b>Source</b></span><br>
<img src="https://i.imgur.com/sxdbEA9.png" class="bbCodeImage LbImage" alt="[​IMG]" data-url="https://i.imgur.com/sxdbEA9.png" style=""></div><div class="quoteExpand">Click to expand...</div></blockquote>
</aside>
</div>
<div class="bbCodeBlock bbCodeQuote">
<aside>
<blockquote class="quoteContainer"><div class="quote"><b><span style="font-size: 15px">Release Name</span></b><br>
President.Evil.2018.1080p.ROKU.WEB-DL.AAC2.0.H.264-Samuel</div><div class="quoteExpand">Click to expand...</div></blockquote>
</aside>
</div>
<div class="ToggleTriggerAnchor bbCodeSpoilerContainer">
<button type="button" class="button bbCodeSpoilerButton ToggleTrigger Tooltip JsOnly" data-target="> .SpoilerTarget"><span>Spoiler: <span class="SpoilerTitle">Media Information</span></span></button>
<div class="SpoilerTarget bbCodeSpoilerText">General<br>
Complete name : President.Evil.2018.1080p.ROKU.WEB-DL.AAC2.0.H.264-Samuel.mkv<br>
Format : Matroska<br>
Format version : Version 4<br>
File size : 1.78 GiB<br>
Duration : 1 h 21 min<br>
Overall bit rate mode : Variable<br>
Overall bit rate : 3 129 kb/s<br>
Frame rate : 23.976 FPS<br>
Encoded date : 2024-05-04 20:47:57 UTC<br>
Writing application : mkvmerge v84.0 ('Sleeper') 64-bit<br>
Writing library : libebml v1.4.5 + libmatroska v1.7.1<br>
<br>
Video<br>
ID : 1<br>
Format : AVC<br>
Format/Info : Advanced Video Codec<br>
Format profile : High@L4<br>
Format settings : CABAC / 3 Ref Frames<br>
Format settings, CABAC : Yes<br>
Format settings, Reference frames : 3 frames<br>
Codec ID : V_MPEG4/ISO/AVC<br>
Duration : 1 h 21 min<br>
Bit rate mode : Variable<br>
Bit rate : 2 999 kb/s<br>
Maximum bit rate : 4 172 kb/s<br>
Width : 1 920 pixels<br>
Height : 812 pixels<br>
Display aspect ratio : 2.35:1<br>
Frame rate mode : Constant<br>
Frame rate : 23.976 (24000/1001) FPS<br>
Color space : YUV<br>
Chroma subsampling : 4:2:0<br>
Bit depth : 8 bits<br>
Scan type : Progressive<br>
Bits/(Pixel*Frame) : 0.080<br>
Stream size : 1.71 GiB (96%)<br>
Default : Yes<br>
Forced : No<br>
<br>
Audio<br>
ID : 2<br>
Format : AAC LC SBR<br>
Format/Info : Advanced Audio Codec Low Complexity with Spectral Band Replication<br>
Commercial name : HE-AAC<br>
Format settings : Explicit<br>
Codec ID : A_AAC-2<br>
Duration : 1 h 21 min<br>
Bit rate : 128 kb/s<br>
Channel(s) : 2 channels<br>
Channel layout : L R<br>
Sampling rate : 48.0 kHz<br>
Frame rate : 23.438 FPS (2048 SPF)<br>
Compression mode : Lossy<br>
Stream size : 74.6 MiB (4%)<br>
Language : English<br>
Default : Yes<br>
Forced : No<br>
<br>
Text<br>
ID : 3<br>
Format : UTF-8<br>
Codec ID : S_TEXT/UTF8<br>
Codec ID/Info : UTF-8 Plain Text<br>
Duration : 1 h 21 min<br>
Bit rate : 63 b/s<br>
Frame rate : 0.292 FPS<br>
Count of elements : 1429<br>
Stream size : 38.1 KiB (0%)<br>
Title : SDH<br>
Language : English<br>
Default : No<br>
Forced : No</div>
</div><br>
<b>Screenshots</b><br>
<img src="https://i.imgur.com/FCoAFDN.png" class="bbCodeImage LbImage" alt="[​IMG]" data-url="https://i.imgur.com/FCoAFDN.png" style=""><br>
<br>
<b>Download</b><br>
<div class="bbCodeBlock bbCodeVfcHH HiddenContent">
<div class="attribution type">Hidden Content:</div>
<blockquote>You must reply before you can see the hidden data contained here.</blockquote>
</div></div>
<div class="messageTextEndMarker">&nbsp;</div>
</blockquote>
</article>]]></description>
                <author><![CDATA[Samuel]]></author>
                </item>

                
                <item>
                <title><![CDATA[【Singles (lossless)】FLAC - Tones On Tail - Lions - Go! (Club Mix) (1984) [24 Bit / 88.2 kHz] [Vinyl Rip]]]></title>
                <link><![CDATA[https://sharemania.us/threads/tones-on-tail-lions-go-club-mix-1984-24-bit-88-2-khz-vinyl-rip.245499/]]></link>
                <description><![CDATA[<article>
<blockquote class="messageText SelectQuoteContainer ugc baseHtml">
<img src="https://i.discogs.com/4Is3YngmB_ZfQjOZ-ehsMUFFBxmsBmbZcA1_XJXjTL8/rs:fit/g:sm/q:90/h:600/w:595/czM6Ly9kaXNjb2dz/LWRhdGFiYXNlLWlt/YWdlcy9SLTEwNzQ3/NTctMTE5MjI4MTUz/Mi5qcGVn.jpeg" class="bbCodeImage LbImage" alt="[​IMG]" data-url="https://i.discogs.com/4Is3YngmB_ZfQjOZ-ehsMUFFBxmsBmbZcA1_XJXjTL8/rs:fit/g:sm/q:90/h:600/w:595/czM6Ly9kaXNjb2dz/LWRhdGFiYXNlLWlt/YWdlcy9SLTEwNzQ3/NTctMTE5MjI4MTUz/Mi5qcGVn.jpeg" style=""> <br>
<br>
<a href="https://www.discogs.com/release/1074757-Tones-On-Tail-Lions-Go" target="_blank" class="externalLink" rel="nofollow">Tones On Tail – Lions / Go! (1984, Red, Vinyl) - Discogs</a><br>
<br>
<div class="bbCodeBlock bbCodeVfcHH HiddenContent">
<div class="attribution type">Hidden Content:</div>
<blockquote>You must reply before you can see the hidden data contained here.</blockquote>
</div><span data-s9e-mediaembed="youtube" style="display:inline-block;width:100%;max-width:640px"><span style="display:block;overflow:hidden;position:relative;padding-bottom:56.25%"><iframe allowfullscreen="" loading="lazy" scrolling="no" style="background:url(https://i.ytimg.com/vi/I1We--FLRmc/hqdefault.jpg) 50% 50% / cover;border:0;height:100%;left:0;position:absolute;width:100%" src="https://www.youtube.com/embed/I1We--FLRmc"></iframe></span></span>
<div class="messageTextEndMarker">&nbsp;</div>
</blockquote>
</article>]]></description>
                <author><![CDATA[L3G3Nd]]></author>
                </item>

                </channel></rss>